<svg width="18" height="20" viewBox="0 0 18 20" fill="none" xmlns="http://www.w3.org/2000/svg">
<path d="M4.95218 6.00049H11.9385L11.7613 8.00049H6.99124C6.72602 8.00049 6.47167 8.10585 6.28413 8.29338C6.09659 8.48092 5.99124 8.73527 5.99124 9.00049C5.99124 9.26571 6.09659 9.52006 6.28413 9.7076C6.47167 9.89513 6.72602 10.0005 6.99124 10.0005H11.5841L11.3203 12.977L8.99124 13.5054L6.66312 12.976L6.56741 11.9116C6.55574 11.7808 6.51842 11.6536 6.45757 11.5372C6.39673 11.4208 6.31357 11.3175 6.21282 11.2333C6.11207 11.149 5.99572 11.0855 5.8704 11.0462C5.74508 11.0069 5.61326 10.9927 5.48245 11.0044C5.35164 11.016 5.22441 11.0534 5.10802 11.1142C4.99164 11.1751 4.88838 11.2582 4.80413 11.359C4.71989 11.4597 4.65632 11.5761 4.61704 11.7014C4.57776 11.8267 4.56356 11.9585 4.57523 12.0893L4.73538 13.8793C4.75429 14.09 4.83941 14.2892 4.97852 14.4485C5.11764 14.6078 5.30362 14.719 5.5098 14.7661L8.76956 15.5063C8.91555 15.5388 9.06692 15.5388 9.21292 15.5063L12.4737 14.7661C12.68 14.7189 12.8661 14.6076 13.0052 14.4481C13.1443 14.2886 13.2294 14.0892 13.2481 13.8784L13.6797 9.01045L13.6817 9.00045L13.6809 8.99654L14.0274 5.08834C14.0394 4.95018 14.0226 4.81103 13.978 4.6797C13.9334 4.54838 13.8621 4.42775 13.7684 4.32547C13.6748 4.22319 13.5609 4.14148 13.434 4.08553C13.3071 4.02958 13.1699 4.00061 13.0313 4.00045H4.95218C4.68696 4.00045 4.43261 4.10581 4.24507 4.29334C4.05753 4.48088 3.95218 4.73523 3.95218 5.00045C3.95218 5.26567 4.05753 5.52002 4.24507 5.70756C4.43261 5.89509 4.68696 6.00045 4.95218 6.00045V6.00049ZM17.6543 0.325678C17.5605 0.223271 17.4465 0.141482 17.3194 0.0855015C17.1923 0.0295207 17.0549 0.000570497 16.916 0.000488388H1.06644C0.927601 0.000424314 0.790275 0.0292812 0.663208 0.0852202C0.536141 0.141159 0.422119 0.222954 0.328409 0.325392C0.234699 0.42783 0.163354 0.548665 0.118921 0.680198C0.0744887 0.811731 0.0579424 0.951078 0.0703367 1.08936L1.5137 17.2837C1.5317 17.4861 1.61098 17.6782 1.74097 17.8343C1.87096 17.9905 2.04548 18.1033 2.24124 18.1577L8.7139 19.9633C8.88951 20.0128 9.07539 20.0128 9.25101 19.9633L15.7412 18.1508C15.937 18.0964 16.1115 17.9836 16.2415 17.8275C16.3715 17.6713 16.4508 17.4792 16.4688 17.2768L17.9121 1.08935C17.9244 0.951143 17.9078 0.811897 17.8634 0.680438C17.8191 0.548978 17.7478 0.428173 17.6543 0.325678ZM14.5381 16.4107L8.98245 17.9624L3.44437 16.4175L2.15921 2.00049H15.8233L14.5381 16.4107Z" fill="black"/>
</svg>
